<svg width="74" height="75" viewBox="0 0 74 75" fill="none" xmlns="http://www.w3.org/2000/svg">
<g clip-path="url(#clip0_5060_11669)">
<path d="M36.4873 74.2614C33.7757 74.1734 31.1863 73.1129 29.192 71.2736C27.1977 69.4344 25.9315 66.9391 25.6248 64.2435C25.5661 63.8654 25.5825 63.4795 25.673 63.1078C25.7635 62.736 25.9263 62.3858 26.1522 62.077C26.6083 61.4533 27.2935 61.0364 28.057 60.9179C28.8206 60.7994 36.6036 60.9179 36.6036 60.9179V74.2614H36.4873Z" fill="#AAAAAA"/>
<path d="M36.667 74.2622H36.5469V60.9375H45.101C45.8605 61.054 46.5427 61.4675 46.9974 62.0869C47.4521 62.7063 47.6421 63.481 47.5258 64.2405C47.2185 66.9345 45.9532 69.4284 43.9606 71.2674C41.968 73.1063 39.3808 74.1679 36.6708 74.2585" fill="#AAAAAA"/>
<path d="M37.1304 63.7657H2.91268C2.13984 63.7647 1.399 63.457 0.852875 62.9102C0.30675 62.3634 -6.4005e-07 61.6221 0 60.8493V56.0073C0.335619 54.0437 1.08305 52.1733 2.19316 50.5191C3.30326 48.865 4.75091 47.4645 6.44092 46.4098C9.61259 44.1577 11.6957 34.5564 12.1574 28.472C12.7617 18.1575 16.016 10.4067 21.77 5.47089C26.1963 1.72008 31.8731 -0.225773 37.6696 0.0208806V63.7657H37.1304Z" fill="#EBEBEB"/>
<path d="M71.0722 63.7662L36.3115 63.7624V2.95692V0.0213396C42.1119 -0.228179 47.7932 1.71785 52.2224 5.47135C57.9614 10.4071 61.1969 18.158 61.8312 28.5063C62.2741 34.5568 64.3723 44.1581 67.6191 46.4628C69.2865 47.5064 70.7161 48.8887 71.8153 50.52C72.9145 52.1514 73.6588 53.9954 73.9999 55.9327V60.8497C73.9989 61.6219 73.6917 62.3622 73.1457 62.9082C72.5997 63.4542 71.8594 63.7614 71.0872 63.7624" fill="#EBEBEB"/>
</g>
<defs>
<clipPath id="clip0_5060_11669">
<rect width="74" height="75" fill="white"/>
</clipPath>
</defs>
</svg>
