<svg width="24" height="24" viewBox="0 0 24 24" fill="none" xmlns="http://www.w3.org/2000/svg">
<path d="M20.8811 13.792C20.5853 13.396 20.2081 13.0678 19.7749 12.8297C18.9674 12.3097 18.4475 10.0642 18.3258 8.63718C18.3307 7.61876 18.1158 6.61127 17.6958 5.68347C17.2758 4.75567 16.6606 3.92941 15.8922 3.26107C14.8144 2.44065 13.4967 1.99753 12.1422 2.00001C12.0944 2.00549 12.0461 2.00549 11.9984 2.00001C11.9543 2.00556 11.9097 2.00556 11.8656 2.00001C10.5225 2.00478 9.21754 2.44752 8.1488 3.26107C7.37805 3.9275 6.76125 4.75339 6.34106 5.68163C5.92087 6.60987 5.70732 7.6183 5.71517 8.63718C5.59349 10.0642 5.06252 12.3097 4.26606 12.8297C3.83285 13.0678 3.45566 13.396 3.15986 13.792C2.87856 14.1724 2.6858 14.6108 2.5957 15.0752V16.1814C2.59805 16.2836 2.62869 16.3832 2.6842 16.469C3.49172 18.5376 11.9984 18.5487 11.9984 18.5487C11.9984 18.5487 20.505 18.5487 21.3236 16.469C21.3712 16.3804 21.3977 16.282 21.401 16.1814V15.0752C21.3298 14.6129 21.1518 14.1735 20.8811 13.792Z" fill="#292929"/>
<path d="M14.8762 19.9204C14.8762 19.9204 14.8762 19.7988 14.8762 19.7766C14.8572 19.7143 14.8183 19.6599 14.7656 19.6218C14.7014 19.5652 14.6188 19.5337 14.5333 19.5333C13.1505 19.6218 12.0443 19.6218 12.0443 19.6218C12.0443 19.6218 10.9381 19.6218 9.56645 19.5333C9.48047 19.5316 9.39719 19.5633 9.33415 19.6218C9.26778 19.6218 9.26777 19.6771 9.22352 19.7766C9.21976 19.8245 9.21976 19.8726 9.22352 19.9204V20.2965C9.22352 21.2257 10.4956 21.9669 12.0664 21.9669C13.6372 21.9669 14.9204 21.2257 14.9204 20.2965L14.8762 19.9204Z" fill="#292929"/>
</svg>
