<svg width="188" height="188" viewBox="0 0 188 188" fill="none" xmlns="http://www.w3.org/2000/svg">
<rect width="187.5" height="187.5" fill="black" fill-opacity="0.05"/>
<g clip-path="url(#clip0_5165_2193)">
<path d="M33.8726 100.722L28.9316 87.7314H32.5558L36.8445 99.231H35.0324L39.5264 87.7314H42.764L47.0768 99.231H45.3734L49.7829 87.7314H53.1171L48.1761 100.71H44.4311L40.6136 90.6H41.6043L37.678 100.71L33.8726 100.722Z" fill="#CACACA" stroke="#CACACA" stroke-width="0.2" stroke-miterlimit="10"/>
<path d="M56.6802 89.3615C56.141 89.3865 55.6094 89.2219 55.1701 88.894C54.9881 88.7685 54.8388 88.5978 54.7355 88.397C54.6322 88.1963 54.5781 87.972 54.5781 87.744C54.5792 87.5163 54.6337 87.2923 54.7369 87.0918C54.8402 86.8913 54.9889 86.7203 55.1701 86.5941C55.6094 86.2662 56.141 86.1016 56.6802 86.1265C57.2153 86.1051 57.7435 86.2598 58.1902 86.5688C58.3688 86.6909 58.5154 86.8577 58.6166 87.0541C58.7179 87.2505 58.7707 87.4703 58.7701 87.6935C58.7715 87.9242 58.7209 88.1521 58.6222 88.3585C58.5235 88.5649 58.3797 88.7441 58.2023 88.8813C57.7612 89.2164 57.2248 89.3857 56.6802 89.3615ZM54.9889 100.735V90.7642H58.3594V100.735H54.9889Z" fill="#CACACA" stroke="#CACACA" stroke-width="0.2" stroke-miterlimit="10"/>
<path d="M65.3908 100.874C64.4289 100.877 63.4694 100.775 62.5277 100.57C61.7743 100.427 61.0456 100.167 60.3652 99.7996L61.4887 97.7272C62.0889 98.035 62.7214 98.2682 63.3733 98.4222C64.078 98.5969 64.7995 98.6859 65.5237 98.6876C66.0813 98.7263 66.6405 98.6446 67.1666 98.4475C67.3044 98.4015 67.4256 98.3129 67.514 98.1933C67.6025 98.0736 67.6541 97.9287 67.662 97.7777C67.6557 97.6589 67.6156 97.5448 67.5466 97.4502C67.4777 97.3555 67.3832 97.2847 67.2754 97.247C66.9535 97.1136 66.6165 97.0244 66.2727 96.9816L64.9076 96.792C64.4123 96.792 63.9049 96.653 63.4096 96.5519C62.933 96.4532 62.4702 96.2919 62.0324 96.0717C61.6337 95.8794 61.2855 95.5889 61.0176 95.225C60.7579 94.8136 60.627 94.3278 60.6431 93.835C60.6439 93.2099 60.8729 92.6086 61.2834 92.1543C61.7968 91.6167 62.433 91.2252 63.1317 91.017C64.0669 90.7184 65.0415 90.5777 66.019 90.5999C66.8292 90.602 67.6376 90.6782 68.4351 90.8274C69.1443 90.9445 69.8351 91.1613 70.4888 91.4719L69.3653 93.5317C68.8257 93.2571 68.2526 93.0615 67.662 92.9504C67.1205 92.8412 66.5704 92.7862 66.019 92.7861C65.4596 92.7524 64.8997 92.8429 64.376 93.0515C64.0378 93.2284 63.8565 93.4432 63.8565 93.7213C63.8596 93.844 63.8982 93.9628 63.9673 94.0621C64.0363 94.1614 64.1325 94.2364 64.2431 94.2773C64.5629 94.4222 64.9004 94.52 65.2458 94.5679C65.6566 94.6438 66.1156 94.7069 66.6109 94.7701C67.1062 94.8333 67.6015 94.9091 68.1089 95.0102C68.584 95.1147 69.0461 95.2758 69.4861 95.4904C69.877 95.6845 70.22 95.9699 70.4888 96.3245C70.7597 96.7263 70.8956 97.2107 70.8754 97.7019C70.8764 98.0073 70.8192 98.3099 70.7072 98.5919C70.5952 98.874 70.4306 99.1299 70.2231 99.3447C69.702 99.8756 69.0625 100.262 68.3626 100.469C67.3968 100.758 66.3951 100.894 65.3908 100.874Z" fill="#CACACA" stroke="#CACACA" stroke-width="0.2" stroke-miterlimit="10"/>
<path d="M79.9965 90.5994C80.8441 90.5881 81.6856 90.7512 82.473 91.0796C83.1683 91.3721 83.7653 91.8733 84.1885 92.5203C84.6328 93.2785 84.8475 94.1595 84.8046 95.0476V100.76H81.4462V95.5026C81.4728 95.1766 81.4315 94.8485 81.3251 94.5409C81.2187 94.2333 81.0498 93.9535 80.8301 93.7208C80.3416 93.3034 79.7198 93.0956 79.0905 93.1395C78.5974 93.133 78.1082 93.2319 77.6529 93.4301C77.2419 93.6086 76.8952 93.9181 76.6623 94.3147C76.4138 94.7766 76.2925 95.3015 76.3119 95.8311V100.76H72.9414V86.9727H76.3119V93.5186L75.5508 92.6845C75.9888 91.9978 76.6108 91.4615 77.3388 91.1428C78.1778 90.7667 79.0838 90.5814 79.9965 90.5994Z" fill="#CACACA" stroke="#CACACA" stroke-width="0.2" stroke-miterlimit="10"/>
<path d="M94.1914 100.722V87.7316H101.573C103.053 87.635 104.53 87.9581 105.849 88.6667C106.281 88.895 106.643 89.2437 106.897 89.6741C107.15 90.1045 107.285 90.5999 107.287 91.1056C107.301 91.7487 107.095 92.376 106.707 92.8748C106.287 93.407 105.735 93.8089 105.112 94.0374C104.366 94.3241 103.575 94.4613 102.781 94.4417L103.191 93.6835C104.067 93.6521 104.941 93.776 105.777 94.05C106.442 94.2672 107.036 94.6742 107.492 95.2252C107.908 95.7642 108.127 96.4409 108.108 97.1334C108.113 97.6745 107.972 98.2061 107.7 98.6667C107.429 99.1273 107.039 99.4982 106.574 99.7366C105.174 100.45 103.622 100.772 102.068 100.672L94.1914 100.722ZM97.6706 98.4603H101.742C102.449 98.5001 103.156 98.3704 103.808 98.0812C104.035 97.9724 104.225 97.7923 104.35 97.566C104.476 97.3396 104.531 97.0781 104.508 96.8175C104.531 96.5569 104.476 96.2954 104.35 96.069C104.225 95.8426 104.035 95.6626 103.808 95.5538C103.159 95.2535 102.45 95.1192 101.742 95.162H97.4049V92.9632H101.138C101.81 93.0011 102.48 92.8711 103.095 92.5841C103.306 92.4836 103.485 92.3217 103.61 92.1178C103.735 91.9139 103.802 91.6766 103.802 91.4342C103.802 91.1917 103.735 90.9544 103.61 90.7505C103.485 90.5466 103.306 90.3847 103.095 90.2842C102.48 89.9972 101.81 89.8673 101.138 89.9051H97.6706V98.4603Z" fill="#CACACA" stroke="#CACACA" stroke-width="0.2" stroke-miterlimit="10"/>
<path d="M115.985 100.873C114.856 100.899 113.735 100.671 112.699 100.203C111.803 99.8146 111.02 99.1872 110.428 98.3837C109.886 97.6149 109.594 96.685 109.594 95.73C109.594 94.775 109.886 93.845 110.428 93.0762C111.02 92.2727 111.803 91.6454 112.699 91.2565C114.805 90.3806 117.152 90.3806 119.258 91.2565C120.135 91.6493 120.901 92.2716 121.481 93.0636C122.015 93.8382 122.302 94.7688 122.302 95.7236C122.302 96.6785 122.015 97.6091 121.481 98.3837C120.892 99.1902 120.108 99.8182 119.21 100.203C118.192 100.663 117.093 100.891 115.985 100.873ZM115.985 98.4974C116.505 98.5097 117.022 98.3973 117.495 98.1689C117.925 97.959 118.289 97.626 118.546 97.2085C118.82 96.7744 118.959 96.2625 118.944 95.7426C118.958 95.2149 118.819 94.695 118.546 94.2515C118.285 93.8408 117.921 93.513 117.495 93.3037C117.02 93.0821 116.505 92.97 115.985 92.9751C115.464 92.9676 114.949 93.0798 114.475 93.3037C114.046 93.5158 113.68 93.8429 113.411 94.2515C113.128 94.6912 112.985 95.2128 113.001 95.7426C112.985 96.2645 113.129 96.7781 113.411 97.2085C113.676 97.6238 114.043 97.9559 114.475 98.1689C114.947 98.3986 115.464 98.511 115.985 98.4974Z" fill="#CACACA" stroke="#CACACA" stroke-width="0.2" stroke-miterlimit="10"/>
<path d="M127.98 100.873C127.186 100.895 126.396 100.762 125.648 100.482C125.069 100.264 124.556 99.8891 124.163 99.395C123.834 98.9519 123.656 98.4074 123.656 97.8469C123.656 97.2865 123.834 96.7419 124.163 96.2989C124.589 95.7936 125.148 95.4292 125.769 95.2501C126.699 94.9701 127.665 94.8422 128.632 94.8709H131.725V96.5769H129.007C128.443 96.5209 127.876 96.6395 127.376 96.9181C127.241 97.0069 127.129 97.1298 127.051 97.2755C126.973 97.4212 126.931 97.5851 126.929 97.7522C126.929 97.9321 126.977 98.1085 127.066 98.2622C127.156 98.4159 127.284 98.5411 127.436 98.6241C127.865 98.8692 128.35 98.9831 128.838 98.9527C129.359 98.9609 129.876 98.8442 130.348 98.6115C130.772 98.4015 131.114 98.0442 131.314 97.6005L131.834 98.94C131.583 99.5907 131.103 100.116 130.493 100.406C129.699 100.757 128.841 100.917 127.98 100.873ZM131.52 100.722V98.7757L131.302 98.3587V94.8709C131.313 94.5904 131.259 94.3112 131.143 94.0579C131.027 93.8045 130.854 93.5847 130.638 93.4177C130.035 93.0255 129.328 92.844 128.62 92.8996C128.008 92.9011 127.399 92.9861 126.808 93.1523C126.267 93.2879 125.753 93.5187 125.286 93.8347L124.078 91.8128C124.79 91.3919 125.56 91.0892 126.361 90.9156C127.253 90.703 128.165 90.597 129.079 90.5997C130.525 90.5149 131.961 90.8893 133.199 91.6738C133.698 92.0559 134.096 92.5654 134.354 93.1538C134.612 93.7422 134.722 94.3899 134.673 95.0352V100.722H131.52Z" fill="#CACACA" stroke="#CACACA" stroke-width="0.2" stroke-miterlimit="10"/>
<path d="M137.705 100.722V90.7513H140.919V93.5693L140.472 92.7479C140.831 92.0299 141.415 91.4632 142.127 91.143C143.011 90.7611 143.961 90.5761 144.917 90.5997V93.266H144.531H144.156C143.361 93.2265 142.576 93.4619 141.921 93.9358C141.632 94.1932 141.404 94.5184 141.257 94.8851C141.11 95.2518 141.048 95.6496 141.076 96.0462V100.747L137.705 100.722Z" fill="#CACACA" stroke="#CACACA" stroke-width="0.2" stroke-miterlimit="10"/>
<path d="M151.804 100.873C150.786 100.889 149.776 100.673 148.845 100.241C148.007 99.8488 147.286 99.2293 146.755 98.447C146.239 97.65 145.973 96.7049 145.994 95.7427C145.971 94.7723 146.237 93.8186 146.755 93.0131C147.283 92.2311 148.006 91.615 148.845 91.2313C149.776 90.7992 150.786 90.5837 151.804 90.5994C152.687 90.5827 153.562 90.7727 154.365 91.1555C155.09 91.5178 155.686 92.1105 156.069 92.8488C156.502 93.7442 156.709 94.7401 156.673 95.7427C156.708 96.7382 156.509 97.7275 156.093 98.6239C155.73 99.3644 155.144 99.9595 154.426 100.317C153.605 100.711 152.707 100.901 151.804 100.873ZM152.384 98.4975C152.897 98.5086 153.405 98.3961 153.87 98.1689C154.301 97.9559 154.669 97.6239 154.933 97.2085C155.207 96.7745 155.346 96.2626 155.332 95.7427C155.346 95.2149 155.207 94.6951 154.933 94.2515C154.665 93.8429 154.298 93.5159 153.87 93.3037C153.398 93.0873 152.888 92.9755 152.372 92.9755C151.856 92.9755 151.346 93.0873 150.874 93.3037C150.442 93.5156 150.072 93.8424 149.799 94.2515C149.525 94.6951 149.386 95.2149 149.4 95.7427C149.386 96.2626 149.525 96.7745 149.799 97.2085C150.068 97.6244 150.439 97.9562 150.874 98.1689C151.347 98.3987 151.863 98.5111 152.384 98.4975ZM155.429 100.722V98.6871L155.489 95.7174L155.308 92.7856V86.9727H158.678V100.722H155.429Z" fill="#CACACA" stroke="#CACACA" stroke-width="0.2" stroke-miterlimit="10"/>
</g>
<defs>
<clipPath id="clip0_5165_2193">
<rect width="130" height="15" fill="white" transform="translate(28.75 86)"/>
</clipPath>
</defs>
</svg>
