<svg width="230" height="40" viewBox="0 0 230 40" fill="none" xmlns="http://www.w3.org/2000/svg">
<path d="M219.659 31.4354C220.434 35.0917 221.558 36.9198 223.03 36.9198C223.6 36.9198 224.146 36.714 224.668 36.3025C225.191 35.8752 225.673 35.3608 226.116 34.7593C226.575 34.142 226.979 33.4931 227.327 32.8125C227.676 32.1319 227.96 31.5383 228.182 31.0318C228.34 30.652 228.617 30.462 229.013 30.462C229.266 30.462 229.48 30.557 229.654 30.7469C229.828 30.9369 229.915 31.1426 229.915 31.3642C229.915 31.4908 229.891 31.6016 229.844 31.6966C229.733 31.9657 229.567 32.3297 229.345 32.7887C229.14 33.2319 228.878 33.7147 228.562 34.237C228.261 34.7435 227.921 35.2658 227.541 35.8039C227.161 36.3421 226.742 36.8248 226.283 37.2522C225.824 37.6795 225.333 38.0357 224.811 38.3206C224.304 38.5896 223.766 38.7242 223.196 38.7242C222.136 38.7242 221.226 38.3601 220.466 37.6321C219.706 36.8881 219.049 35.6694 218.495 33.9758C217.736 35.5903 216.968 36.7615 216.192 37.4896C215.417 38.2177 214.578 38.5817 213.676 38.5817C213.201 38.5817 212.742 38.5026 212.299 38.3443C211.856 38.2019 211.468 37.9565 211.135 37.6083C210.803 37.2601 210.534 36.8169 210.328 36.2788C210.122 35.7248 210.02 35.0521 210.02 34.2607C210.02 33.1686 210.209 32.1635 210.589 31.2455C210.969 30.3275 211.46 29.544 212.061 28.8951C212.663 28.2303 213.328 27.7159 214.056 27.3518C214.8 26.9878 215.536 26.8058 216.264 26.8058C216.501 26.8058 216.707 26.8928 216.881 27.0669C217.055 27.2252 217.142 27.431 217.142 27.6842C217.142 27.9058 217.071 28.1037 216.928 28.2778C216.786 28.4519 216.596 28.5548 216.359 28.5864C215.884 28.6497 215.377 28.8001 214.839 29.0375C214.301 29.2749 213.802 29.6231 213.343 30.0822C212.9 30.5253 212.528 31.0951 212.228 31.7916C211.943 32.488 211.8 33.319 211.8 34.2845C211.8 35.0759 211.958 35.6931 212.275 36.1363C212.607 36.5795 213.082 36.8011 213.7 36.8011C213.953 36.8011 214.222 36.7378 214.507 36.6112C214.792 36.4687 215.092 36.1996 215.409 35.8039C215.741 35.4082 216.097 34.8463 216.477 34.1183C216.873 33.3902 217.308 32.4326 217.783 31.2455C217.514 29.8527 217.269 28.2461 217.047 26.4259C216.826 24.6057 216.715 22.5718 216.715 20.3243C216.715 19.3429 216.746 18.322 216.81 17.2616C216.873 16.1853 216.976 15.1406 217.118 14.1277C217.261 13.0988 217.451 12.1254 217.688 11.2074C217.926 10.2894 218.21 9.48217 218.543 8.78575C218.891 8.08932 219.295 7.54326 219.754 7.14756C220.213 6.73604 220.735 6.53027 221.321 6.53027C221.843 6.53027 222.286 6.67272 222.65 6.95763C223.014 7.24253 223.307 7.63822 223.529 8.14472C223.766 8.65121 223.94 9.26058 224.051 9.97284C224.162 10.6851 224.217 11.4686 224.217 12.3233C224.217 14.1593 224.059 15.9953 223.742 17.8314C223.426 19.6674 223.03 21.4243 222.555 23.1021C222.096 24.7798 221.606 26.3309 221.083 27.7555C220.561 29.18 220.086 30.4066 219.659 31.4354ZM222.437 12.2995C222.437 11.9038 222.421 11.4765 222.389 11.0175C222.373 10.5585 222.318 10.1311 222.223 9.73542C222.144 9.32389 222.033 8.98359 221.89 8.71452C221.748 8.44545 221.558 8.31091 221.321 8.31091C220.925 8.31091 220.553 8.65912 220.205 9.35555C219.872 10.052 219.58 10.97 219.326 12.1096C219.073 13.2334 218.867 14.5154 218.709 15.9558C218.567 17.3803 218.495 18.8206 218.495 20.2768C218.495 21.6696 218.551 23.0625 218.662 24.4553C218.772 25.8482 218.899 27.0907 219.041 28.1828C219.5 26.9641 219.936 25.7137 220.347 24.4316C220.759 23.1337 221.115 21.8121 221.416 20.4667C221.732 19.1214 221.977 17.7681 222.152 16.4069C222.342 15.0298 222.437 13.6607 222.437 12.2995Z" fill="#292929"/>
<path d="M198.176 28.5895C198.113 29.0168 198.033 29.4204 197.938 29.8003C197.843 30.1643 197.749 30.4888 197.654 30.7737C197.574 31.0428 197.503 31.2644 197.44 31.4385C197.377 31.6126 197.337 31.7076 197.321 31.7234C197.163 32.0874 196.886 32.2694 196.49 32.2694C196.269 32.2694 196.063 32.1903 195.873 32.032C195.683 31.8579 195.588 31.6442 195.588 31.391C195.588 31.296 195.604 31.2248 195.635 31.1773C195.667 31.1298 195.715 31.0349 195.778 30.8924C195.841 30.75 195.92 30.5125 196.015 30.1802C196.11 29.8478 196.229 29.3334 196.371 28.6369C196.102 28.6369 195.825 28.629 195.541 28.6132C195.256 28.5974 194.994 28.542 194.757 28.447C194.504 28.352 194.298 28.2017 194.14 27.9959C193.981 27.7902 193.902 27.5053 193.902 27.1412C193.902 26.8721 193.981 26.5081 194.14 26.0491C194.282 25.5901 194.48 25.139 194.733 24.6958C194.987 24.2526 195.271 23.8728 195.588 23.5562C195.905 23.2238 196.221 23.0576 196.538 23.0576C196.902 23.0576 197.195 23.1922 197.416 23.4612C197.654 23.7303 197.836 24.0627 197.962 24.4584C198.089 24.8383 198.176 25.2419 198.223 25.6692C198.287 26.0966 198.318 26.4685 198.318 26.7851C198.587 26.7851 198.849 26.7851 199.102 26.7851C199.371 26.7693 199.624 26.7613 199.862 26.7613C200.764 26.7613 201.452 26.9592 201.927 27.3549C202.402 27.7506 202.639 28.3995 202.639 29.3017C202.639 29.6658 202.616 30.0456 202.568 30.4413C202.521 30.837 202.465 31.2485 202.402 31.6759C202.339 32.0874 202.283 32.4989 202.236 32.9105C202.188 33.322 202.164 33.7256 202.164 34.1213C202.164 34.6911 202.244 35.1659 202.402 35.5458C202.56 35.9099 202.758 36.2027 202.995 36.4243C203.233 36.6459 203.486 36.8041 203.755 36.8991C204.024 36.9782 204.27 37.0178 204.491 37.0178C205.172 37.0178 205.813 36.7962 206.414 36.353C207.016 35.9099 207.57 35.3796 208.076 34.7623C208.583 34.1292 209.034 33.4644 209.429 32.768C209.841 32.0716 210.181 31.4622 210.45 30.9399C210.53 30.7975 210.64 30.6867 210.783 30.6075C210.925 30.5284 211.076 30.4888 211.234 30.4888C211.519 30.4888 211.74 30.5838 211.899 30.7737C212.057 30.9478 212.136 31.1457 212.136 31.3673C212.136 31.5255 212.104 31.668 212.041 31.7946C211.677 32.4435 211.25 33.1795 210.759 34.0026C210.284 34.8098 209.738 35.5696 209.121 36.2818C208.504 36.9941 207.807 37.5955 207.032 38.0862C206.272 38.5769 205.433 38.8222 204.515 38.8222C203.945 38.8222 203.407 38.7114 202.9 38.4898C202.394 38.284 201.951 37.9833 201.571 37.5876C201.207 37.1761 200.914 36.6775 200.693 36.0919C200.471 35.4904 200.36 34.8177 200.36 34.0738C200.36 33.2824 200.439 32.4989 200.598 31.7234C200.756 30.932 200.835 30.1802 200.835 29.4679C200.835 29.1672 200.764 28.9456 200.621 28.8031C200.495 28.6449 200.202 28.5657 199.743 28.5657C199.521 28.5657 199.276 28.5657 199.007 28.5657C198.754 28.5657 198.477 28.5736 198.176 28.5895ZM196.585 26.8326C196.585 26.7218 196.577 26.5793 196.561 26.4052C196.561 26.2153 196.546 26.0333 196.514 25.8592C196.498 25.685 196.466 25.5347 196.419 25.4081C196.387 25.2814 196.348 25.2181 196.3 25.2181C196.253 25.2181 196.189 25.2814 196.11 25.4081C196.047 25.5189 195.976 25.6613 195.897 25.8354C195.818 25.9937 195.746 26.1678 195.683 26.3577C195.62 26.5477 195.572 26.7059 195.541 26.8326H196.585Z" fill="#292929"/>
<path d="M197.315 31.7225C197.252 31.8491 197.117 32.1182 196.911 32.5297C196.721 32.9254 196.468 33.3844 196.152 33.9067C195.851 34.429 195.495 34.9751 195.083 35.5449C194.672 36.1147 194.213 36.637 193.706 37.1119C193.2 37.5867 192.654 37.9824 192.068 38.299C191.482 38.5997 190.865 38.7501 190.216 38.7501C189.298 38.7501 188.523 38.4572 187.889 37.8716C187.272 37.286 186.821 36.55 186.536 35.6636C185.998 36.5658 185.357 37.286 184.613 37.8241C183.869 38.3464 183.125 38.6076 182.381 38.6076C181.796 38.6076 181.265 38.5047 180.791 38.299C180.316 38.0774 179.912 37.7766 179.58 37.3968C179.247 37.0011 178.986 36.5421 178.796 36.0197C178.622 35.4974 178.535 34.9276 178.535 34.3103C178.535 33.0758 178.741 31.9916 179.152 31.0577C179.58 30.108 180.118 29.3166 180.767 28.6835C181.416 28.0504 182.128 27.5756 182.904 27.259C183.695 26.9425 184.455 26.7842 185.183 26.7842C185.674 26.7842 186.125 26.8554 186.536 26.9979C186.948 27.1245 187.296 27.2669 187.581 27.4252C187.882 27.5835 188.111 27.7339 188.269 27.8763C188.428 28.0029 188.515 28.0742 188.53 28.09C188.705 28.2957 188.792 28.5094 188.792 28.731C188.792 28.9684 188.705 29.1821 188.53 29.372C188.356 29.5461 188.151 29.6332 187.913 29.6332C187.66 29.6332 187.446 29.5461 187.272 29.372C187.24 29.3404 187.169 29.285 187.058 29.2058C186.948 29.1109 186.797 29.0159 186.607 28.9209C186.417 28.826 186.188 28.7468 185.919 28.6835C185.666 28.6044 185.373 28.5648 185.04 28.5648C184.55 28.5648 184.027 28.6756 183.473 28.8972C182.919 29.1188 182.413 29.467 181.954 29.9418C181.495 30.4009 181.107 30.9865 180.791 31.6987C180.49 32.3952 180.34 33.2261 180.34 34.1916C180.34 34.4924 180.371 34.801 180.435 35.1176C180.498 35.4183 180.609 35.6953 180.767 35.9485C180.925 36.2018 181.139 36.4075 181.408 36.5658C181.677 36.7241 182.009 36.8032 182.405 36.8032C182.69 36.8032 183.014 36.7083 183.378 36.5183C183.758 36.3284 184.114 36.0356 184.447 35.6399C184.795 35.2442 185.104 34.7456 185.373 34.1441C185.658 33.5427 185.856 32.8304 185.966 32.0074C185.998 31.7858 186.101 31.6038 186.275 31.4613C186.449 31.303 186.655 31.2239 186.892 31.2239C187.114 31.2239 187.304 31.311 187.462 31.4851C187.636 31.6592 187.731 31.857 187.747 32.0786C187.763 32.3793 187.794 32.8067 187.842 33.3607C187.889 33.8988 187.992 34.437 188.151 34.9751C188.325 35.5133 188.578 35.9802 188.91 36.3759C189.243 36.7716 189.702 36.9694 190.287 36.9694C190.667 36.9694 191.039 36.8665 191.403 36.6608C191.783 36.455 192.147 36.1859 192.495 35.8536C192.859 35.5053 193.2 35.1176 193.516 34.6902C193.849 34.247 194.149 33.8038 194.418 33.3607C194.688 32.9175 194.925 32.4901 195.131 32.0786C195.336 31.6671 195.511 31.311 195.653 31.0102C195.732 30.8361 195.843 30.7016 195.985 30.6066C196.144 30.5116 196.31 30.4642 196.484 30.4642C196.753 30.4642 196.967 30.567 197.125 30.7728C197.299 30.9627 197.386 31.1685 197.386 31.3901C197.386 31.5009 197.362 31.6117 197.315 31.7225Z" fill="#292929"/>
<path d="M174.525 35.7317C174.129 35.7317 173.781 35.7 173.48 35.6367C173.243 36.1115 172.958 36.5547 172.625 36.9662C172.293 37.3619 171.905 37.7102 171.462 38.0109C171.035 38.3116 170.552 38.549 170.014 38.7231C169.476 38.8973 168.89 38.9843 168.257 38.9843C167.513 38.9843 166.832 38.8498 166.215 38.5807C165.598 38.3274 165.06 37.9713 164.601 37.5123C164.142 37.0375 163.785 36.4756 163.532 35.8266C163.279 35.1619 163.152 34.4338 163.152 33.6424C163.152 32.6294 163.334 31.751 163.698 31.0071C164.062 30.2473 164.482 29.6221 164.957 29.1314C165.432 28.625 165.906 28.253 166.381 28.0156C166.856 27.7623 167.212 27.6357 167.45 27.6357C167.719 27.6357 167.917 27.7069 168.043 27.8494C168.186 27.9918 168.257 28.1818 168.257 28.4192C168.257 28.6883 168.17 28.894 167.996 29.0365C167.837 29.1631 167.632 29.2897 167.378 29.4164C167.125 29.543 166.856 29.725 166.571 29.9624C166.286 30.184 166.017 30.4689 165.764 30.8171C165.527 31.1653 165.329 31.5769 165.17 32.0517C165.012 32.5265 164.933 33.0568 164.933 33.6424C164.933 34.1647 165.012 34.6554 165.17 35.1144C165.329 35.5576 165.558 35.9454 165.859 36.2777C166.16 36.5943 166.516 36.8475 166.927 37.0375C167.339 37.2116 167.798 37.2986 168.304 37.2986C169.207 37.2986 169.95 37.0929 170.536 36.6813C171.138 36.254 171.597 35.7158 171.913 35.0669C170.979 34.5762 170.212 33.8798 169.61 32.9776C169.009 32.0754 168.708 31.0625 168.708 29.9387C168.708 29.0365 168.922 28.3005 169.349 27.7307C169.792 27.1609 170.37 26.876 171.082 26.876C171.509 26.876 171.913 26.9789 172.293 27.1846C172.673 27.3904 173.005 27.7149 173.29 28.158C173.591 28.6012 173.828 29.171 174.002 29.8674C174.176 30.5639 174.264 31.3948 174.264 32.3603C174.264 32.8668 174.2 33.3971 174.074 33.951C174.169 33.9669 174.264 33.9748 174.358 33.9748C174.453 33.9748 174.556 33.9748 174.667 33.9748C175.205 33.9748 175.688 33.9115 176.115 33.7848C176.543 33.6582 176.931 33.4683 177.279 33.215C177.627 32.9618 177.936 32.6373 178.205 32.2416C178.49 31.8459 178.759 31.3869 179.012 30.8646C179.059 30.7696 179.162 30.6826 179.321 30.6034C179.479 30.5085 179.637 30.461 179.795 30.461C180.001 30.461 180.191 30.548 180.365 30.7222C180.555 30.8804 180.65 31.0941 180.65 31.3632C180.65 31.4898 180.618 31.6323 180.555 31.7905C180.492 31.933 180.428 32.0675 180.365 32.1941C180.096 32.669 179.78 33.128 179.415 33.5712C179.067 33.9985 178.648 34.3784 178.157 34.7108C177.682 35.0273 177.144 35.2806 176.543 35.4705C175.941 35.6604 175.269 35.7475 174.525 35.7317ZM170.465 29.7487C170.465 30.0495 170.504 30.366 170.584 30.6984C170.663 31.0308 170.781 31.3632 170.94 31.6956C171.114 32.0121 171.32 32.3208 171.557 32.6215C171.81 32.9064 172.103 33.1517 172.435 33.3575C172.483 33.0251 172.507 32.7006 172.507 32.3841C172.507 31.9567 172.475 31.5215 172.412 31.0783C172.348 30.6351 172.253 30.2315 172.127 29.8674C172.016 29.4876 171.874 29.1868 171.699 28.9653C171.525 28.7278 171.32 28.6091 171.082 28.6091C170.987 28.6091 170.861 28.6804 170.702 28.8228C170.544 28.9653 170.465 29.2739 170.465 29.7487Z" fill="#292929"/>
<path d="M151.235 21.8426C152.596 22.2224 153.752 22.6577 154.701 23.1484C155.667 23.639 156.474 24.1534 157.123 24.6916C157.788 25.2139 158.31 25.752 158.69 26.306C159.07 26.86 159.363 27.3902 159.568 27.8967C159.774 28.4032 159.901 28.8781 159.948 29.3212C160.011 29.7486 160.043 30.1126 160.043 30.4134C160.043 31.5213 159.829 32.5105 159.402 33.3811C158.991 34.2516 158.429 35.0193 157.716 35.684C157.004 36.3488 156.173 36.9107 155.224 37.3697C154.29 37.8287 153.308 38.2007 152.28 38.4856C151.251 38.7863 150.198 39 149.122 39.1266C148.046 39.2691 147.025 39.3403 146.059 39.3403C144.492 39.3403 142.87 39.182 141.192 38.8654C139.53 38.5489 137.845 38.0345 136.135 37.3222C135.755 37.1639 135.565 36.887 135.565 36.4913C135.565 36.2222 135.66 36.0085 135.85 35.8502C136.04 35.6761 136.246 35.5891 136.467 35.5891C136.578 35.5891 136.697 35.6128 136.824 35.6603C138.296 36.2776 139.807 36.7445 141.358 37.0611C142.909 37.3776 144.468 37.5359 146.035 37.5359C148.172 37.5359 150.008 37.3301 151.544 36.9186C153.079 36.5071 154.337 35.9689 155.318 35.3042C156.316 34.6236 157.052 33.8638 157.526 33.025C158.001 32.1702 158.239 31.3076 158.239 30.4371C158.239 29.4716 157.97 28.5773 157.432 27.7543C156.909 26.9312 156.157 26.1952 155.176 25.5463C154.211 24.8973 153.047 24.3434 151.686 23.8844C150.325 23.4253 148.813 23.085 147.151 22.8635C146.059 23.0534 144.999 23.1879 143.97 23.2671C142.941 23.3462 141.991 23.3858 141.121 23.3858H140.575C140.464 23.3858 140.361 23.3779 140.266 23.362C139.127 26.1003 137.765 28.4665 136.183 30.4608C134.616 32.4552 132.938 34.1092 131.149 35.4229C129.377 36.7208 127.548 37.6863 125.665 38.3194C123.797 38.9367 122.001 39.2453 120.276 39.2453C118.487 39.2453 116.841 38.9921 115.337 38.4856C113.849 37.9949 112.567 37.2906 111.491 36.3726C110.415 35.4545 109.576 34.3466 108.974 33.0487C108.373 31.735 108.072 30.2709 108.072 28.6565C108.072 26.9787 108.397 25.2456 109.046 23.457C109.71 21.6526 110.692 19.8245 111.99 17.9726C113.224 16.2316 114.593 14.6725 116.097 13.2955C117.601 11.9026 119.176 10.6839 120.822 9.63926C122.484 8.59462 124.193 7.70035 125.95 6.95644C127.707 6.21253 129.448 5.60315 131.173 5.12832C132.914 4.65348 134.608 4.31318 136.254 4.10742C137.916 3.88583 139.475 3.77503 140.931 3.77503C142.118 3.77503 143.25 3.8146 144.326 3.89374C145.402 3.97288 146.431 4.09159 147.412 4.24987C147.982 3.61675 148.441 3.16566 148.789 2.89658C149.138 2.61168 149.336 2.4534 149.383 2.42175C149.573 2.32678 149.739 2.2793 149.882 2.2793C150.103 2.2793 150.301 2.34261 150.475 2.46923C150.649 2.59585 150.736 2.77788 150.736 3.01529C150.736 3.33185 150.626 3.60092 150.404 3.82252C150.182 4.02828 149.882 4.31318 149.502 4.67722C152.398 5.38948 154.614 6.46577 156.149 7.90611C157.685 9.33062 158.452 11.0954 158.452 13.2005C158.452 14.356 158.262 15.3927 157.883 16.3107C157.503 17.2287 156.98 18.036 156.316 18.7324C155.667 19.4288 154.899 20.0382 154.013 20.5605C153.142 21.067 152.216 21.4943 151.235 21.8426ZM147.175 21.0591C147.871 20.9325 148.584 20.7663 149.312 20.5605C150.056 20.3547 150.776 20.1094 151.472 19.8245C152.185 19.5238 152.857 19.1756 153.49 18.7799C154.123 18.3683 154.67 17.8935 155.129 17.3554C155.603 16.8014 155.975 16.1841 156.244 15.5035C156.529 14.8229 156.672 14.0473 156.672 13.1768C156.672 11.4041 155.936 9.93999 154.464 8.78456C152.992 7.62912 150.879 6.77442 148.125 6.22044C147.333 7.20177 146.589 8.28598 145.893 9.47307C145.197 10.6602 144.556 11.8947 143.97 13.1768C143.384 14.443 142.854 15.733 142.379 17.0467C141.92 18.3446 141.54 19.6029 141.24 20.8217C141.556 20.8058 141.849 20.7979 142.118 20.7979C142.387 20.7979 142.617 20.7979 142.807 20.7979C143.424 20.7979 144.097 20.8217 144.825 20.8691C145.553 20.9008 146.336 20.9641 147.175 21.0591ZM146.107 5.88805C145.299 5.77726 144.468 5.69812 143.614 5.65064C142.759 5.60315 141.865 5.57941 140.931 5.57941C139.538 5.57941 138.058 5.68229 136.491 5.88805C134.924 6.09382 133.318 6.41829 131.672 6.86147C130.026 7.30465 128.364 7.88237 126.686 8.59462C125.024 9.29105 123.402 10.1378 121.819 11.135C120.252 12.1163 118.756 13.2638 117.332 14.5776C115.907 15.8913 114.609 17.3712 113.438 19.0173C112.251 20.695 111.357 22.3491 110.755 23.9793C110.154 25.6096 109.853 27.1607 109.853 28.6327C109.853 30.0097 110.098 31.2443 110.589 32.3364C111.095 33.4286 111.808 34.3545 112.726 35.1142C113.644 35.8581 114.744 36.4359 116.026 36.8474C117.308 37.2431 118.724 37.4409 120.276 37.4409C121.827 37.4409 123.441 37.1639 125.119 36.61C126.797 36.0402 128.435 35.1775 130.033 34.0221C131.632 32.8508 133.152 31.3789 134.592 29.6061C136.032 27.8176 137.291 25.6966 138.367 23.2433C138.082 23.2433 137.789 23.1642 137.488 23.0059C137.188 22.8318 137.037 22.5627 137.037 22.1987C137.037 21.8188 137.219 21.5497 137.583 21.3915C137.947 21.2174 138.517 21.0749 139.293 20.9641C139.72 19.6662 140.155 18.3683 140.599 17.0705C141.042 15.7726 141.532 14.4905 142.071 13.2243C142.609 11.958 143.202 10.7156 143.851 9.49681C144.5 8.26224 145.252 7.05932 146.107 5.88805Z" fill="#292929"/>
<path d="M91.1481 36.3241C91.4014 35.7859 91.6942 35.2082 92.0266 34.5909C92.359 33.9578 92.7151 33.3168 93.095 32.6678C93.4748 32.0031 93.8784 31.3462 94.3058 30.6973C94.7331 30.0483 95.1763 29.4389 95.6353 28.8691C96.0943 28.3152 96.5533 27.9195 97.0124 27.6821C97.4872 27.4288 97.9304 27.3022 98.3419 27.3022C98.7534 27.3022 99.1096 27.3892 99.4103 27.5633C99.7268 27.7216 99.9801 27.9432 100.17 28.2281C100.376 28.513 100.526 28.8454 100.621 29.2253C100.732 29.6051 100.787 30.0167 100.787 30.4598C100.787 30.8239 100.748 31.3146 100.669 31.9318C100.605 32.5333 100.574 33.1664 100.574 33.8312C100.574 34.2111 100.589 34.5909 100.621 34.9708C100.669 35.3348 100.74 35.6672 100.835 35.9679C100.946 36.2528 101.104 36.4903 101.31 36.6802C101.515 36.8543 101.784 36.9414 102.117 36.9414C102.497 36.9414 102.877 36.8385 103.256 36.6327C103.636 36.4111 104.008 36.1262 104.372 35.778C104.736 35.414 105.085 35.0183 105.417 34.5909C105.749 34.1477 106.05 33.7125 106.319 33.2851C106.588 32.8419 106.826 32.4225 107.031 32.0268C107.237 31.6153 107.403 31.275 107.53 31.0059C107.688 30.6419 107.965 30.4598 108.361 30.4598C108.63 30.4598 108.844 30.5548 109.002 30.7447C109.16 30.9347 109.239 31.1404 109.239 31.362C109.239 31.4887 109.216 31.6074 109.168 31.7182C109.105 31.8448 108.978 32.1059 108.788 32.5016C108.614 32.8973 108.369 33.3563 108.052 33.8787C107.752 34.401 107.395 34.9471 106.984 35.5169C106.572 36.0867 106.113 36.6169 105.607 37.1076C105.116 37.5824 104.578 37.9781 103.992 38.2946C103.423 38.5954 102.821 38.7457 102.188 38.7457C101.46 38.7457 100.874 38.5954 100.431 38.2946C99.988 37.9781 99.6398 37.5824 99.3865 37.1076C99.1491 36.6327 98.9829 36.1025 98.888 35.5169C98.8088 34.9312 98.7693 34.3614 98.7693 33.8074C98.7693 33.5225 98.7772 33.2218 98.793 32.9053C98.8247 32.5729 98.8563 32.2484 98.888 31.9318C98.9196 31.6153 98.9434 31.3225 98.9592 31.0534C98.9908 30.7685 99.0067 30.5311 99.0067 30.3411C99.0067 29.8505 98.9354 29.5181 98.793 29.344C98.6664 29.1699 98.516 29.0828 98.3419 29.0828C98.0887 29.0828 97.7958 29.2332 97.4635 29.5339C97.1469 29.8188 96.8066 30.1987 96.4426 30.6735C96.0943 31.1484 95.7382 31.6865 95.3742 32.288C95.026 32.8736 94.6857 33.4592 94.3533 34.0449C94.0209 34.6305 93.7202 35.1924 93.4511 35.7305C93.182 36.2528 92.9604 36.6881 92.7863 37.0363C92.4539 37.7011 92.1136 38.1443 91.7654 38.3659C91.433 38.6033 91.1323 38.722 90.8632 38.722C90.3726 38.722 89.9927 38.5321 89.7236 38.1522C89.4704 37.7565 89.3438 37.2817 89.3438 36.7277V35.232C89.3438 32.2405 89.3438 29.3915 89.3438 26.6849C89.3596 23.9625 89.3991 21.438 89.4625 19.1113C89.5416 16.7687 89.6603 14.6557 89.8186 12.7722C89.9927 10.8728 90.2459 9.25841 90.5783 7.92886C90.9107 6.58349 91.3301 5.54677 91.8366 4.81869C92.359 4.0906 93.0079 3.72656 93.7835 3.72656C94.4482 3.72656 95.0101 3.90858 95.4691 4.27262C95.9281 4.63667 96.3001 5.13524 96.585 5.76836C96.8699 6.38565 97.0757 7.11373 97.2023 7.95261C97.3289 8.77566 97.3922 9.64619 97.3922 10.5642C97.3922 12.4319 97.2181 14.2679 96.8699 16.0723C96.5375 17.8609 96.0864 19.6098 95.5166 21.3192C94.9468 23.0287 94.282 24.6985 93.5223 26.3288C92.7626 27.9432 91.9633 29.5181 91.1244 31.0534C91.1244 31.3383 91.1244 31.6786 91.1244 32.0743C91.1244 32.47 91.1244 32.8657 91.1244 33.2614C91.1244 33.6571 91.1244 34.029 91.1244 34.3772C91.1244 34.7255 91.1244 35.0024 91.1244 35.2082L91.1481 36.3241ZM91.1481 27.5633C91.8129 26.1072 92.4144 24.6906 92.9525 23.3136C93.5065 21.9207 93.9734 20.5358 94.3533 19.1587C94.749 17.7817 95.0576 16.3889 95.2792 14.9802C95.5008 13.5557 95.6116 12.0758 95.6116 10.5405C95.6116 10.2872 95.5958 9.88361 95.5641 9.32963C95.5483 8.77566 95.4771 8.21377 95.3504 7.64396C95.2396 7.07416 95.0576 6.57558 94.8044 6.14823C94.567 5.72088 94.2267 5.5072 93.7835 5.5072C93.4353 5.5072 93.1345 5.74462 92.8813 6.21945C92.628 6.67846 92.4064 7.31158 92.2165 8.1188C92.0266 8.91019 91.8683 9.83612 91.7417 10.8966C91.6151 11.9571 91.5122 13.0808 91.433 14.2679C91.3539 15.455 91.2906 16.6738 91.2431 17.9242C91.2114 19.1746 91.1877 20.3933 91.1719 21.5804C91.156 22.7517 91.1481 23.8517 91.1481 24.8805C91.1481 25.9093 91.1481 26.8036 91.1481 27.5633Z" fill="#292929"/>
<path d="M79.5623 29.5623C79.4673 29.8156 79.3486 30.1005 79.2061 30.4171C79.0795 30.7336 78.9291 31.066 78.755 31.4142C78.6126 31.6833 78.4622 31.897 78.3039 32.0552C78.1615 32.1977 77.9716 32.2689 77.7341 32.2689C77.4651 32.2689 77.2514 32.1898 77.0931 32.0315C76.9348 31.8574 76.8557 31.6595 76.8557 31.4379C76.8557 31.3588 76.8636 31.2955 76.8794 31.248C76.8953 31.1847 76.9348 31.0897 76.9981 30.9631C77.4097 30.1717 77.7104 29.4832 77.9003 28.8976C78.1061 28.2961 78.2723 27.6709 78.3989 27.022C78.2881 26.6579 78.209 26.3493 78.1615 26.096C78.114 25.8428 78.0903 25.5816 78.0903 25.3126C78.0903 24.7902 78.2011 24.3708 78.4227 24.0542C78.6442 23.7219 78.9529 23.5557 79.3486 23.5557C79.7126 23.5557 79.9975 23.7139 80.2033 24.0305C80.4249 24.3471 80.5357 24.7348 80.5357 25.1938C80.5357 25.4471 80.5119 25.7003 80.4645 25.9536C80.417 26.2068 80.3537 26.5234 80.2745 26.9033C80.6386 27.8054 81.0026 28.6048 81.3666 29.3012C81.7307 29.9976 82.0552 30.6386 82.3401 31.2243C82.625 31.7941 82.8545 32.3322 83.0286 32.8387C83.2185 33.3452 83.3135 33.8517 83.3135 34.3582C83.3135 35.023 83.1789 35.6561 82.9099 36.2575C82.6408 36.859 82.1976 37.3655 81.5803 37.777C81.6595 37.7928 81.7386 37.8008 81.8177 37.8008C81.8969 37.8008 81.976 37.8008 82.0552 37.8008C82.9573 37.8008 83.7883 37.595 84.548 37.1835C85.3078 36.7719 85.9884 36.2417 86.5898 35.5928C87.2071 34.928 87.7532 34.1999 88.228 33.4085C88.7029 32.6013 89.1144 31.802 89.4626 31.0106C89.6209 30.6466 89.8425 30.4645 90.1274 30.4645C90.3964 30.4645 90.6022 30.5595 90.7447 30.7494C90.9029 30.9394 90.9821 31.1451 90.9821 31.3667C90.9821 31.4933 90.9583 31.6121 90.9109 31.7229C90.7367 32.1502 90.5072 32.6409 90.2223 33.1948C89.9533 33.733 89.6209 34.2949 89.2252 34.8805C88.8453 35.4503 88.4021 36.0122 87.8956 36.5662C87.3891 37.1202 86.8193 37.6187 86.1862 38.0619C85.5689 38.4893 84.8883 38.8296 84.1444 39.0828C83.4005 39.3519 82.5854 39.4864 81.699 39.4864C80.6386 39.4864 79.6493 39.2965 78.7313 38.9166C77.8291 38.5526 77.0931 37.9432 76.5233 37.0885C76.4283 36.9461 76.3809 36.7957 76.3809 36.6374C76.3809 36.4 76.4679 36.1942 76.642 36.0201C76.832 35.8302 77.0456 35.7352 77.283 35.7352C77.5363 35.7352 77.75 35.8223 77.9241 35.9964C77.9399 36.028 77.9953 36.0834 78.0903 36.1626C78.1852 36.2259 78.296 36.305 78.4227 36.4C78.5651 36.4791 78.7234 36.5504 78.8975 36.6137C79.0874 36.677 79.2774 36.7086 79.4673 36.7086C79.8472 36.7086 80.1637 36.6295 80.417 36.4712C80.686 36.3129 80.8997 36.123 81.058 35.9014C81.2163 35.664 81.3271 35.4187 81.3904 35.1654C81.4695 34.8963 81.5091 34.6668 81.5091 34.4769C81.5091 34.0812 81.4458 33.6855 81.3192 33.2898C81.1925 32.8941 81.0263 32.4984 80.8206 32.1027C80.6306 31.707 80.417 31.3034 80.1796 30.8919C79.958 30.4645 79.7522 30.0214 79.5623 29.5623Z" fill="#292929"/>
<path d="M70.5847 19.7064C70.5847 20.3079 70.371 20.8223 69.9437 21.2496C69.5321 21.6611 69.0256 21.8669 68.4242 21.8669C67.8227 21.8669 67.3083 21.6611 66.881 21.2496C66.4694 20.8223 66.2637 20.3079 66.2637 19.7064C66.2637 19.4057 66.3191 19.1287 66.4299 18.8754C66.5407 18.6064 66.691 18.3769 66.881 18.1869C67.0867 17.9812 67.3162 17.8229 67.5695 17.7121C67.8385 17.6013 68.1234 17.5459 68.4242 17.5459C68.7249 17.5459 69.0019 17.6013 69.2551 17.7121C69.5242 17.8229 69.7537 17.9812 69.9437 18.1869C70.1494 18.3769 70.3077 18.6064 70.4185 18.8754C70.5293 19.1287 70.5847 19.4057 70.5847 19.7064ZM66.7385 33.6191C66.7385 31.3399 66.881 29.0686 67.1659 26.8052C67.1975 26.5836 67.2925 26.3937 67.4508 26.2354C67.6249 26.0613 67.8465 25.9742 68.1155 25.9742C68.353 25.9742 68.5508 26.0692 68.7091 26.2591C68.8674 26.4333 68.9465 26.639 68.9465 26.8764C68.9465 26.9714 68.9228 27.2563 68.8753 27.7311C68.8436 28.206 68.7961 28.7758 68.7328 29.4405C68.6853 30.0895 68.6379 30.7859 68.5904 31.5298C68.5587 32.2579 68.5429 32.9306 68.5429 33.5479C68.5429 34.3868 68.622 35.0674 68.7803 35.5897C68.9544 36.0962 69.1681 36.4919 69.4213 36.7768C69.6904 37.0617 69.9674 37.2516 70.2523 37.3466C70.553 37.4415 70.8379 37.489 71.107 37.489C71.5502 37.489 72.0092 37.3307 72.484 37.0142C72.9589 36.6976 73.4416 36.2545 73.9323 35.6846C74.4388 35.1148 74.9453 34.4342 75.4518 33.6429C75.9582 32.8356 76.4568 31.9414 76.9475 30.96C77.0266 30.8017 77.1374 30.683 77.2799 30.6039C77.4223 30.5089 77.5806 30.4614 77.7547 30.4614C78.008 30.4614 78.2137 30.5564 78.372 30.7463C78.5461 30.9363 78.6332 31.142 78.6332 31.3636C78.6332 31.5219 78.6015 31.6565 78.5382 31.7672C78.3483 32.1313 78.1108 32.5745 77.8259 33.0968C77.541 33.6191 77.2166 34.1573 76.8525 34.7112C76.4885 35.2652 76.0849 35.8192 75.6417 36.3732C75.2143 36.9113 74.7553 37.402 74.2647 37.8452C73.774 38.2725 73.2596 38.6207 72.7214 38.8898C72.1833 39.1589 71.6372 39.2934 71.0833 39.2934C70.371 39.2934 69.7458 39.143 69.2077 38.8423C68.6695 38.5416 68.2105 38.138 67.8306 37.6315C67.4666 37.125 67.1896 36.5314 66.9997 35.8508C66.8256 35.1544 66.7385 34.4105 66.7385 33.6191ZM69.2551 19.7064C69.2551 19.4848 69.1681 19.2949 68.994 19.1366C68.8357 18.9625 68.6458 18.8754 68.4242 18.8754C68.2026 18.8754 68.0127 18.9625 67.8544 19.1366C67.6961 19.2949 67.617 19.4848 67.617 19.7064C67.617 19.928 67.6961 20.1179 67.8544 20.2762C68.0127 20.4345 68.2026 20.5136 68.4242 20.5136C68.6458 20.5136 68.8357 20.4345 68.994 20.2762C69.1681 20.1179 69.2551 19.928 69.2551 19.7064Z" fill="#292929"/>
<path d="M25.3088 39.4352C25.1347 39.7517 24.8735 39.91 24.5253 39.91C24.2404 39.91 24.0188 39.815 23.8605 39.6251C23.7023 39.451 23.6231 39.2373 23.6231 38.9841C23.6231 38.9524 23.631 38.6279 23.6469 38.0107C23.6627 37.3775 23.6706 36.5307 23.6706 35.4703C23.6706 34.1249 23.6706 32.6925 23.6706 31.173C23.6864 29.6535 23.6706 28.1103 23.6231 26.5434C23.5756 24.9764 23.4727 23.4173 23.3145 21.8662C23.1562 20.3151 22.9109 18.8352 22.5785 17.4265C22.2461 16.002 21.8108 14.6804 21.2727 13.4616C20.7345 12.2429 20.046 11.1903 19.2071 10.3039C18.3683 9.40176 17.3711 8.69742 16.2157 8.19093C15.0602 7.68444 13.699 7.43119 12.1321 7.43119C10.5968 7.43119 9.196 7.70026 7.92977 8.23841C6.66354 8.76073 5.57141 9.47299 4.6534 10.3752C3.75121 11.2615 3.04687 12.3062 2.54037 13.5091C2.04971 14.6962 1.80438 15.9545 1.80438 17.284C1.80438 18.4395 2.00223 19.5079 2.39792 20.4892C2.80945 21.4547 3.36342 22.2936 4.05985 23.0058C4.75628 23.7181 5.5635 24.28 6.48152 24.6915C7.41536 25.0872 8.4046 25.285 9.44925 25.285C10.2248 25.285 10.9371 25.1822 11.586 24.9764C12.235 24.7548 12.7889 24.5174 13.2479 24.2641C13.7069 24.0109 14.0631 23.7814 14.3163 23.5756C14.5696 23.354 14.7041 23.2432 14.7199 23.2432C14.894 23.0691 15.1077 22.9821 15.361 22.9821C15.5984 22.9821 15.8041 23.0691 15.9782 23.2432C16.1524 23.4015 16.2394 23.5994 16.2394 23.8368C16.2394 24.0742 16.1524 24.28 15.9782 24.4541C15.9466 24.4857 15.7646 24.644 15.4322 24.9289C15.1156 25.198 14.6724 25.4908 14.1026 25.8074C13.5328 26.1239 12.8522 26.4088 12.0608 26.6621C11.2853 26.9153 10.4227 27.0419 9.47299 27.0419C8.15927 27.0419 6.9247 26.7966 5.76926 26.3059C4.62966 25.8153 3.6325 25.1347 2.77779 24.2641C1.92309 23.3936 1.24249 22.3648 0.735996 21.1777C0.245332 19.9748 0 18.6769 0 17.284C0 15.7013 0.30073 14.2055 0.902189 12.7968C1.51948 11.3882 2.36627 10.1615 3.44256 9.11686C4.51886 8.05639 5.78509 7.22543 7.24126 6.62397C8.71325 6.00668 10.3119 5.69804 12.0371 5.69804C14.2688 5.69804 16.1524 6.10165 17.6877 6.90887C19.223 7.70026 20.4892 8.76865 21.4863 10.114C22.4993 11.4436 23.2749 12.9868 23.813 14.7437C24.367 16.4847 24.7706 18.3049 25.0239 20.2043C25.2771 22.1036 25.4275 24.0188 25.475 25.9498C25.5225 27.865 25.5462 29.6694 25.5462 31.3629C25.5462 31.6795 25.5462 32.0198 25.5462 32.3838C25.5462 32.7479 25.5383 33.1119 25.5225 33.476C25.5225 33.84 25.5145 34.1882 25.4987 34.5206C25.4987 34.8372 25.4987 35.0983 25.4987 35.3041L41.4057 5.86423C41.5482 5.5635 41.8014 5.41313 42.1655 5.41313C42.4346 5.41313 42.6482 5.5081 42.8065 5.69804C42.9806 5.87214 43.0677 6.07791 43.0677 6.31532C43.0677 6.39446 43.0202 6.68728 42.9252 7.19377C42.8302 7.68444 42.7115 8.34129 42.5691 9.16434C42.4425 9.98739 42.3 10.945 42.1417 12.0371C41.9835 13.1134 41.8331 14.2767 41.6906 15.5271C41.564 16.7776 41.4532 18.0834 41.3583 19.4445C41.2633 20.7899 41.2158 22.1353 41.2158 23.4807C41.2158 25.744 41.3345 27.7542 41.5719 29.5111C41.8093 31.2521 42.1971 32.7241 42.7353 33.9271C43.2734 35.13 43.9778 36.0401 44.8483 36.6574C45.7347 37.2747 46.8189 37.5833 48.1009 37.5833C49.2564 37.5833 50.3564 37.338 51.401 36.8473C52.4457 36.3408 53.4191 35.6523 54.3213 34.7818C55.2235 33.9112 56.0624 32.8903 56.8379 31.7191C57.6135 30.5478 58.3099 29.2895 58.9272 27.9441C59.5603 26.5829 60.1143 25.1742 60.5891 23.7181C61.0798 22.2619 61.4834 20.8137 61.8 19.3733C62.1323 17.933 62.3777 16.5322 62.536 15.171C62.7101 13.8098 62.7971 12.5594 62.7971 11.4198C62.7971 9.36219 62.5597 7.47076 62.0849 5.74552C61.6259 4.00445 60.8819 2.58786 59.8531 1.49573C59.6949 1.33746 59.6157 1.13961 59.6157 0.902189C59.6157 0.648943 59.7028 0.435267 59.8769 0.26116C60.0668 0.0870533 60.2805 0 60.5179 0C60.787 0 61.0007 0.0870533 61.1589 0.26116C61.7604 0.910103 62.2748 1.6461 62.7022 2.46915C63.1453 3.27637 63.5015 4.16273 63.7705 5.12823C64.0554 6.07791 64.2612 7.08298 64.3878 8.14344C64.5303 9.20391 64.6015 10.3039 64.6015 11.4436C64.6015 13.1846 64.4353 15.084 64.1029 17.1416C63.7705 19.1834 63.2799 21.241 62.6309 23.3145C61.982 25.3721 61.1827 27.3664 60.233 29.2974C59.2992 31.2284 58.2149 32.9378 56.9804 34.4256C55.7616 35.8976 54.4083 37.0847 52.9205 37.9869C51.4327 38.8733 49.8262 39.3165 48.1009 39.3165C46.4707 39.3165 45.1015 38.9524 43.9936 38.2243C42.8856 37.4804 41.9914 36.4199 41.3108 35.0429C40.646 33.6501 40.1632 31.9644 39.8625 29.9859C39.5776 28.0074 39.4352 25.7757 39.4352 23.2907C39.4352 22.2619 39.4668 21.2014 39.5301 20.1093C39.6093 19.0172 39.6963 17.9488 39.7913 16.9042C39.9021 15.8595 40.0129 14.8545 40.1237 13.889C40.2503 12.9235 40.369 12.0529 40.4798 11.2774L25.3088 39.4352Z" fill="#292929"/>
</svg>
